<svg width="161" height="40" viewBox="0 0 161 40" fill="none" xmlns="http://www.w3.org/2000/svg">
<mask id="mask0_696_18" style="mask-type:luminance" maskUnits="userSpaceOnUse" x="0" y="0" width="45" height="40">
<path d="M44.2105 0H0V40H44.2105V0Z" fill="white"/>
</mask>
<g mask="url(#mask0_696_18)">
<path d="M6.04918 30.2378C7.67041 31.3687 10.2989 31.3687 11.9202 30.2378C13.5414 29.107 13.5414 27.2735 11.9202 26.1427C10.2989 25.0118 7.67041 25.0118 6.04918 26.1427C4.42794 27.2735 4.42794 29.107 6.04918 30.2378Z" fill="#B88DFF"/>
<path d="M22.8761 14.8812C25.308 16.5774 29.2507 16.5774 31.6826 14.8812C34.1144 13.1849 34.1144 10.4347 31.6826 8.7385C29.2507 7.04225 25.308 7.04225 22.8761 8.7385C20.4443 10.4347 20.4443 13.1849 22.8761 14.8812Z" fill="#B88DFF"/>
<path d="M13.9435 22.5594C15.97 23.9729 19.2557 23.9729 21.2822 22.5594C23.3087 21.1458 23.3087 18.8541 21.2822 17.4405C19.2557 16.027 15.97 16.027 13.9435 17.4405C11.917 18.8541 11.917 21.1458 13.9435 22.5594Z" fill="#B88DFF"/>
<path d="M0.911942 21.5357C2.12786 22.3838 4.09926 22.3838 5.31519 21.5357C6.53111 20.6876 6.53111 19.3125 5.31519 18.4643C4.09926 17.6162 2.12786 17.6162 0.911942 18.4643C-0.303981 19.3125 -0.30398 20.6876 0.911942 21.5357Z" fill="#B88DFF"/>
<path d="M13.9435 6.17903C15.97 7.59257 19.2557 7.59257 21.2822 6.17903C23.3087 4.76549 23.3087 2.47369 21.2822 1.06016C19.2557 -0.353386 15.97 -0.353387 13.9435 1.06016C11.917 2.47369 11.917 4.76549 13.9435 6.17903Z" fill="#B88DFF"/>
<path d="M6.04917 13.8574C7.6704 14.9883 10.2989 14.9883 11.9202 13.8574C13.5414 12.7266 13.5414 10.8931 11.9202 9.76231C10.2989 8.63148 7.6704 8.63148 6.04917 9.76231C4.42794 10.8931 4.42795 12.7266 6.04917 13.8574Z" fill="#B88DFF"/>
<path d="M13.9435 38.9399C15.97 40.3534 19.2557 40.3534 21.2822 38.9399C23.3087 37.5263 23.3087 35.2345 21.2822 33.821C19.2557 32.4075 15.97 32.4075 13.9435 33.821C11.917 35.2345 11.917 37.5263 13.9435 38.9399Z" fill="#B88DFF"/>
<path d="M33.5802 23.0714C36.0121 24.7676 39.9549 24.7676 42.3867 23.0714C44.8186 21.3752 44.8186 18.6249 42.3867 16.9287C39.9549 15.2324 36.0121 15.2324 33.5802 16.9287C31.1484 18.6249 31.1484 21.3752 33.5802 23.0714Z" fill="#B88DFF"/>
<path d="M22.8761 31.2615C25.308 32.9578 29.2507 32.9578 31.6826 31.2615C34.1144 29.5653 34.1144 26.8152 31.6826 25.1188C29.2507 23.4226 25.308 23.4226 22.8761 25.1188C20.4443 26.8152 20.4443 29.5653 22.8761 31.2615Z" fill="#B88DFF"/>
</g>
<path d="M69.8468 16.6953C69.7225 16.2633 69.5479 15.8815 69.323 15.5501C69.0981 15.2127 68.8229 14.9286 68.4974 14.6978C68.1778 14.4611 67.8108 14.2805 67.3965 14.1562C66.9881 14.032 66.5354 13.9698 66.0382 13.9698C65.109 13.9698 64.2922 14.2006 63.5879 14.6623C62.8895 15.1239 62.345 15.7957 61.9544 16.6776C61.5638 17.5535 61.3685 18.6248 61.3685 19.8913C61.3685 21.1579 61.5608 22.2351 61.9455 23.1229C62.3302 24.0107 62.8747 24.6883 63.5791 25.1559C64.2834 25.6175 65.1149 25.8484 66.0737 25.8484C66.9438 25.8484 67.6865 25.6945 68.3021 25.3867C68.9235 25.073 69.397 24.6321 69.7225 24.0639C70.054 23.4957 70.2197 22.824 70.2197 22.0487L71.0009 22.1641H66.3134V19.2699H73.9217V21.5604C73.9217 23.1584 73.5844 24.5315 72.9097 25.6797C72.235 26.822 71.3057 27.7038 70.122 28.3253C68.9383 28.9408 67.583 29.2486 66.056 29.2486C64.3514 29.2486 62.854 28.8728 61.5638 28.1211C60.2735 27.3635 59.2674 26.2893 58.5453 24.8984C57.8292 23.5017 57.4711 21.8445 57.4711 19.9268C57.4711 18.4531 57.6842 17.1392 58.1103 15.9851C58.5424 14.825 59.1461 13.8426 59.9214 13.0376C60.6967 12.2327 61.5993 11.6201 62.6291 11.1999C63.659 10.7797 64.7746 10.5696 65.9761 10.5696C67.0059 10.5696 67.9647 10.7205 68.8525 11.0224C69.7403 11.3183 70.5274 11.7385 71.214 12.283C71.9065 12.8275 72.4717 13.4756 72.9097 14.2273C73.3476 14.973 73.6288 15.7957 73.7531 16.6953H69.8468ZM82.8995 29.2663C81.5204 29.2663 80.3278 28.9734 79.3217 28.3874C78.3215 27.7956 77.5491 26.9729 77.0046 25.9194C76.4601 24.86 76.1878 23.6319 76.1878 22.2351C76.1878 20.8265 76.4601 19.5954 77.0046 18.5419C77.5491 17.4825 78.3215 16.6598 79.3217 16.0739C80.3278 15.482 81.5204 15.1861 82.8995 15.1861C84.2785 15.1861 85.4681 15.482 86.4684 16.0739C87.4745 16.6598 88.2498 17.4825 88.7943 18.5419C89.3389 19.5954 89.6111 20.8265 89.6111 22.2351C89.6111 23.6319 89.3389 24.86 88.7943 25.9194C88.2498 26.9729 87.4745 27.7956 86.4684 28.3874C85.4681 28.9734 84.2785 29.2663 82.8995 29.2663ZM82.9172 26.3366C83.5446 26.3366 84.0684 26.1591 84.4886 25.804C84.9088 25.4429 85.2255 24.9517 85.4385 24.3303C85.6575 23.7088 85.767 23.0015 85.767 22.2085C85.767 21.4154 85.6575 20.7081 85.4385 20.0866C85.2255 19.4652 84.9088 18.974 84.4886 18.6129C84.0684 18.2519 83.5446 18.0714 82.9172 18.0714C82.2839 18.0714 81.7513 18.2519 81.3192 18.6129C80.8931 18.974 80.5705 19.4652 80.3515 20.0866C80.1385 20.7081 80.0319 21.4154 80.0319 22.2085C80.0319 23.0015 80.1385 23.7088 80.3515 24.3303C80.5705 24.9517 80.8931 25.4429 81.3192 25.804C81.7513 26.1591 82.2839 26.3366 82.9172 26.3366ZM92.1413 29V10.8182H104.18V13.9876H95.9854V18.32H103.381V21.4893H95.9854V29H92.1413ZM110.476 10.8182V29H106.694V10.8182H110.476ZM113.506 29V15.3636H117.288V29H113.506ZM115.406 13.6058C114.843 13.6058 114.361 13.4194 113.959 13.0465C113.562 12.6677 113.364 12.215 113.364 11.6882C113.364 11.1674 113.562 10.7205 113.959 10.3477C114.361 9.96887 114.843 9.77947 115.406 9.77947C115.968 9.77947 116.447 9.96887 116.844 10.3477C117.246 10.7205 117.448 11.1674 117.448 11.6882C117.448 12.215 117.246 12.6677 116.844 13.0465C116.447 13.4194 115.968 13.6058 115.406 13.6058ZM126.461 34.3977C125.236 34.3977 124.185 34.229 123.309 33.8917C122.439 33.5603 121.747 33.1075 121.232 32.5334C120.717 31.9593 120.382 31.3142 120.229 30.598L123.726 30.1275C123.833 30.3997 124.002 30.6542 124.232 30.891C124.463 31.1277 124.768 31.3171 125.147 31.4592C125.532 31.6071 125.999 31.6811 126.55 31.6811C127.372 31.6811 128.05 31.4799 128.583 31.0774C129.121 30.6809 129.39 30.015 129.39 29.0799V26.5852H129.231C129.065 26.964 128.816 27.3221 128.485 27.6594C128.154 27.9968 127.727 28.272 127.207 28.4851C126.686 28.6982 126.064 28.8047 125.342 28.8047C124.318 28.8047 123.386 28.5679 122.546 28.0945C121.711 27.6151 121.045 26.8841 120.548 25.9016C120.057 24.9132 119.811 23.6644 119.811 22.1552C119.811 20.6104 120.063 19.3202 120.566 18.2844C121.069 17.2487 121.738 16.4734 122.572 15.9585C123.413 15.4435 124.333 15.1861 125.333 15.1861C126.097 15.1861 126.736 15.3163 127.251 15.5767C127.766 15.8312 128.18 16.1508 128.494 16.5355C128.813 16.9143 129.059 17.2872 129.231 17.6541H129.373V15.3636H133.128V29.1332C133.128 30.2932 132.844 31.2638 132.276 32.0451C131.708 32.8263 130.92 33.4123 129.914 33.8029C128.914 34.1995 127.763 34.3977 126.461 34.3977ZM126.541 25.9638C127.15 25.9638 127.665 25.8129 128.085 25.511C128.512 25.2032 128.837 24.7653 129.062 24.1971C129.293 23.623 129.408 22.9364 129.408 22.1374C129.408 21.3384 129.296 20.646 129.071 20.06C128.846 19.4682 128.52 19.0095 128.094 18.6839C127.668 18.3584 127.15 18.1957 126.541 18.1957C125.919 18.1957 125.395 18.3643 124.969 18.7017C124.543 19.0331 124.221 19.4948 124.002 20.0866C123.783 20.6785 123.673 21.3621 123.673 22.1374C123.673 22.9246 123.783 23.6052 124.002 24.1793C124.227 24.7475 124.549 25.1884 124.969 25.5021C125.395 25.8099 125.919 25.9638 126.541 25.9638ZM139.92 21.1165V29H136.138V10.8182H139.813V17.7695H139.973C140.281 16.9646 140.778 16.3343 141.464 15.8786C142.151 15.4169 143.012 15.1861 144.048 15.1861C144.995 15.1861 145.82 15.3932 146.525 15.8075C147.235 16.2159 147.785 16.8048 148.176 17.5742C148.573 18.3377 148.768 19.2521 148.762 20.3175V29H144.98V20.9922C144.986 20.1518 144.773 19.4978 144.341 19.0302C143.915 18.5626 143.317 18.3288 142.547 18.3288C142.033 18.3288 141.577 18.4383 141.18 18.6573C140.79 18.8763 140.482 19.1959 140.257 19.6161C140.038 20.0304 139.926 20.5305 139.92 21.1165ZM158.991 15.3636V18.2045H150.779V15.3636H158.991ZM152.644 12.0966H156.426V24.8097C156.426 25.1589 156.479 25.4311 156.586 25.6264C156.692 25.8158 156.84 25.949 157.029 26.0259C157.225 26.1029 157.45 26.1413 157.704 26.1413C157.882 26.1413 158.059 26.1265 158.237 26.0969C158.414 26.0614 158.551 26.0348 158.645 26.017L159.24 28.8313C159.051 28.8905 158.784 28.9586 158.441 29.0355C158.098 29.1184 157.68 29.1687 157.189 29.1864C156.278 29.2219 155.479 29.1006 154.792 28.8224C154.112 28.5443 153.582 28.1122 153.203 27.5263C152.824 26.9403 152.638 26.2005 152.644 25.3068V12.0966Z" fill="white"/>
</svg>
